<?xml version="1.0" encoding="UTF-8"?>
<svg id="Capa_1" data-name="Capa 1" xmlns="http://www.w3.org/2000/svg" xmlns:xlink="http://www.w3.org/1999/xlink" viewBox="0 0 1920 1080">
  <defs>
    <style>
      .cls-1 {
        fill: none;
      }

      .cls-2 {
        fill: #167160;
        opacity: .9;
      }

      .cls-3 {
        fill: #136d28;
        opacity: .61;
      }

      .cls-4 {
        fill: #2abb00;
        opacity: .29;
      }

      .cls-5 {
        clip-path: url(#clippath);
      }
    </style>
    <clipPath id="clippath">
      <rect class="cls-1" width="1920" height="1080"/>
    </clipPath>
  </defs>
  <g class="cls-5">
    <path class="cls-4" d="M1529.09,609.73c-65.27,8.41-129.97,22.75-191.49,46.11-152.56,57.91-278.79,168.09-421.4,247.39-172.29,95.8-371.29,147.1-568.53,143.14-124.03-2.49-247.59-.72-371.59-8.78-20.83,80.05-32.68,162.87-29.04,245.5.71,16.18,2.15,32.83,9.46,47.28,11.34,22.42,34.71,35.8,57.19,47.01,77.19,38.47,159.19,66.55,242.31,89.57,9.64,2.67,19.49,5.36,27.8,10.92,6.38,4.27,12.32,10.87,14.11,18.53,1.66,7.1-4.28,13.4,2.12,19.99,2.87,2.96,7.19,3.87,11.25,4.63,240.89,45.2,487.9,42.03,732.98,38.7,264.07-3.58,530.13-7.38,788.55-61.85,37.55-7.91,76.46-17.67,105.52-42.73,34.53-29.76,49.78-76.46,81.26-109.42,37.82-39.59,94.34-54.9,138.12-87.78,43.79-32.89,72.72-81.78,95.4-131.63,19.88-43.7,36.09-92.18,25.93-139.11-6.45-29.8-23.01-56.28-39.29-82.07-69.8-69.8-81.55-195.92-179.96-233.12-107.07-40.47-220.58-63.94-334.87-69.76-65.33-3.33-130.96-.89-195.83,7.48Z"/>
    <path class="cls-3" d="M230.71,762.56c185.79,34.96,324.79,204.02,510.72,238.24,106.85,19.66,217.23-8.14,317.33-50.37,100.1-42.24,193.67-98.81,293.81-140.95,192.06-80.83,398.79-138.18,599.73-83,32,8.79,51.82,26.48,66.26,39.33,13.66,12.16,35.55,38.87,40.97,56.33,20.06,64.73,17.05,114.25,20.87,181.91.69,12.28,1,25.14-4.35,36.22-6.48,13.42-20.03,21.78-33.23,28.71-75.95,39.88-161.81,56.39-246.8,67.98-138.78,18.94-278.89,26.08-418.84,31.87-277.75,11.49-555.73,17.73-833.72,18.73-202.2.72-405.5-1.43-604.68-36.25-14.02-2.45-29.28-5.8-38.06-17-7.38-9.41-8.38-22.18-8.89-34.12-3.51-82.81,2.61-166.02,18.13-247.43,2.66-13.94,3.65-46.07,12.42-57.13s36.99-12.78,51.64-16.09c40.5-9.15,81.36-17.13,122.72-21.16,44.59-4.35,89.81-4.1,133.94,4.2Z"/>
    <path class="cls-2" d="M270.36,775.13c183.9,43.83,314.63,219.37,498.71,262.46,105.79,24.77,217.37,2.29,319.38-35.09,102.01-37.39,198.18-89.41,300.23-126.7,195.72-71.52,404.96-118.89,603.03-54.14,31.54,10.31,50.49,28.93,64.3,42.46,13.06,12.8,33.65,40.53,38.22,58.23,16.93,65.62,11.55,114.93,12.12,182.7.1,12.3-.21,25.16-6.08,35.97-7.11,13.09-21.06,20.79-34.56,27.08-77.77,36.19-164.33,48.56-249.78,56.06-139.53,12.26-279.82,12.67-419.88,11.74-277.99-1.85-555.94-8.94-833.66-21.29-202-8.98-404.97-20.88-602.24-65.21-13.88-3.12-28.96-7.2-37.2-18.8-6.92-9.75-7.31-22.55-7.24-34.51.46-82.88,10.57-165.7,29.98-246.28,3.32-13.8,5.86-45.84,15.14-56.47,9.66-11.05,37.56-11,52.35-13.6,40.89-7.19,82.09-13.21,123.6-15.25,44.75-2.2,89.9.21,133.59,10.62Z"/>
    <path class="cls-4" d="M179.89,758.69c-62.72-2.49-122.44,4.34-183.7,16.3l2.15-69.55c64.05-.96,127.29,20.26,181.55,53.24Z"/>
    <path class="cls-4" d="M-4.31,228.71s242.6,197.33,707.14,54.66c0,0,67.54-14.67,190.22-117.33,0,0,180.65-139.69,343.23-117.33l94.09,10.13s160.92,32.53,319.44,24.53c158.52-8,260.52-97.33,260.52-97.33,0,0-125.44-146.66-147.49-153.33-22.05-6.67-574.81-53.33-574.81-53.33L-58.07-79.28-4.31,228.71Z"/>
    <path class="cls-3" d="M796.66-34.92V-11.52c-109.57-23.11-223.46-25.03-335.89-25.09-160.08-.08-320.16,3.13-480.14,8.79-26.88.95-57.42,3.76-73.8,25.1-14.42,18.79-12.29,45.33-6.46,68.29,5.83,22.96,14.72,46.13,11.52,69.6-.54,3.99-2.36,8.51-5.1,11.22h-5.87v2.3l1.28.09c-.42.05-.84.06-1.28.02v87.98c25.49,2.89,50.74,7.77,76.24,10.78,108.09,12.75,251.21,15.08,343.75-50.15,40.05-28.23,72.64-61.14,119.65-79.15,30.39-11.65,62.76-17.18,95.03-21.4,86.48-11.29,174.13-13.54,261.07-6.76v1.48c35.68,4.05,71.03,10.88,106.71,15.09,151.3,17.84,351.63,21.1,481.16-70.2,26.92-18.97,51.25-42.6,67.39-71.41h-655.25Z"/>
    <path class="cls-2" d="M999.24-35.56c-24.72,44.13-61.98,80.31-103.22,109.38-198.4,139.85-505.25,134.85-737,107.53-54.65-6.44-108.79-16.91-163.45-23.11V-35.56h1003.66Z"/>
  </g>
</svg>